<svg xmlns="http://www.w3.org/2000/svg" xmlns:sodipodi="http://sodipodi.sourceforge.net/DTD/sodipodi-0.dtd" viewBox="0 0 100 125" x="0px" y="0px"><path d="M 15.46875 15.9375 C 9.6890267 15.9375 5 20.626523 5 26.40625 L 5 74.53125 C 5 80.310976 9.6890267 85 15.46875 85 L 84.53125 85 C 90.310976 85 95 80.310976 95 74.53125 L 95 26.40625 C 95 20.626523 90.310976 15.9375 84.53125 15.9375 L 15.46875 15.9375 z M 15.46875 19.0625 L 84.53125 19.0625 C 88.577056 19.0625 91.875 22.360446 91.875 26.40625 L 91.875 29.25 L 8.125 29.25 L 8.125 26.40625 C 8.125 22.360446 11.422944 19.0625 15.46875 19.0625 z M 14.78125 33.84375 L 20.1875 39.3125 L 14.78125 44.75 L 12.0625 43.15625 L 16.09375 39.3125 L 12.0625 35.40625 L 14.78125 33.84375 z M 23.5 41.59375 L 32.5625 41.59375 L 32.5625 44.75 L 23.5 44.75 L 23.5 41.59375 z "/><text x="0" y="115" fill="#000000" font-size="5px" font-weight="bold" font-family="'Helvetica Neue', Helvetica, Arial-Unicode, Arial, Sans-serif">Created by Magicon</text><text x="0" y="120" fill="#000000" font-size="5px" font-weight="bold" font-family="'Helvetica Neue', Helvetica, Arial-Unicode, Arial, Sans-serif">from the Noun Project</text></svg>