<svg xmlns="http://www.w3.org/2000/svg" viewBox="0 0 256 192" clip-path="url(#clip)" width="512" height="384"><defs><clipPath id="clip" clipPathUnits="objectBoundingBox"><rect x="0" y="0" width="256" height="192"/></clipPath></defs><rect x="0" y="0" width="256" height="192" fill="rgb(73, 100, 120)"/><path d="M111,167L151,78L59,4Z" fill="rgb(161, 185, 212)" fill-opacity="0.67"/><path d="M142,102L18,108L34,18Z" fill="rgb(204, 208, 216)" fill-opacity="0.31"/><path d="M186,146L141,1L440,-3Z" fill="rgb(180, 180, 177)" fill-opacity="0.46"/><path d="M129,35L114,-26L82,31Z" fill="rgb(202, 174, 158)" fill-opacity="0.50"/><path d="M83,274L119,63L148,152Z" fill="rgb(143, 177, 214)" fill-opacity="0.59"/><path d="M207,121L209,183L151,166Z" fill="rgb(22, 66, 89)" fill-opacity="0.60"/><path d="M-139,142L107,126L91,227Z" fill="rgb(1, 80, 122)" fill-opacity="0.86"/><path d="M179,101L145,143L142,77Z" fill="rgb(87, 31, 0)" fill-opacity="0.46"/><path d="M128,193L268,191L232,166Z" fill="rgb(106, 170, 244)" fill-opacity="0.45"/><path d="M178,106L136,100L184,162Z" fill="rgb(86, 62, 46)" fill-opacity="0.63"/><path d="M183,143L347,139L188,176Z" fill="rgb(16, 74, 105)" fill-opacity="0.96"/><path d="M263,-147L76,67L167,68Z" fill="rgb(118, 106, 96)" fill-opacity="0.49"/><path d="M103,12L40,-45L70,9Z" fill="rgb(26, 14, 3)" fill-opacity="0.51"/><path d="M78,52L6,-6L86,11Z" fill="rgb(102, 115, 122)" fill-opacity="0.89"/><path d="M257,-18L181,135L253,143Z" fill="rgb(124, 147, 167)" fill-opacity="0.71"/><path d="M116,147L123,161L110,195Z" fill="rgb(67, 91, 108)" fill-opacity="0.59"/><path d="M86,114L96,71L157,82Z" fill="rgb(173, 217, 255)" fill-opacity="0.40"/><path d="M141,-4L116,-3L138,33Z" fill="rgb(47, 32, 17)" fill-opacity="0.63"/><path d="M148,94L156,126L161,84Z" fill="rgb(55, 33, 22)" fill-opacity="0.54"/><path d="M87,27L-81,15L2,3Z" fill="rgb(61, 77, 86)" fill-opacity="0.78"/><path d="M187,125L144,169L176,181Z" fill="rgb(108, 63, 36)" fill-opacity="0.38"/><path d="M119,43L140,39L129,21Z" fill="rgb(71, 38, 20)" fill-opacity="0.49"/><path d="M48,24L35,114L-138,-1Z" fill="rgb(108, 118, 124)" fill-opacity="0.76"/><path d="M99,74L103,-2L34,91Z" fill="rgb(132, 144, 155)" fill-opacity="0.51"/><path d="M132,105L166,78L142,-9Z" fill="rgb(127, 130, 132)" fill-opacity="0.65"/><path d="M253,146L256,90L340,53Z" fill="rgb(10, 6, 11)" fill-opacity="0.82"/><path d="M87,104L110,131L-6,127Z" fill="rgb(75, 110, 156)" fill-opacity="0.67"/><path d="M100,17L82,-8L77,9Z" fill="rgb(33, 33, 33)" fill-opacity="0.49"/><path d="M169,219L129,161L165,117Z" fill="rgb(199, 186, 207)" fill-opacity="0.13"/><path d="M90,106L111,41L124,49Z" fill="rgb(151, 205, 255)" fill-opacity="0.32"/><path d="M134,39L151,72L156,41Z" fill="rgb(130, 139, 141)" fill-opacity="0.77"/><path d="M80,12L84,43L99,14Z" fill="rgb(178, 181, 184)" fill-opacity="0.40"/><path d="M156,79L150,96L170,98Z" fill="rgb(74, 48, 34)" fill-opacity="0.57"/><path d="M108,166L117,121L98,156Z" fill="rgb(140, 181, 216)" fill-opacity="0.45"/><path d="M136,168L124,139L119,182Z" fill="rgb(145, 184, 227)" fill-opacity="0.59"/><path d="M93,70L96,117L122,108Z" fill="rgb(170, 211, 253)" fill-opacity="0.48"/><path d="M279,154L238,261L233,165Z" fill="rgb(78, 118, 160)" fill-opacity="0.86"/><path d="M171,101L225,19L226,122Z" fill="rgb(130, 149, 165)" fill-opacity="0.65"/><path d="M214,144L203,183L180,133Z" fill="rgb(17, 77, 109)" fill-opacity="0.66"/><path d="M110,169L109,186L92,189Z" fill="rgb(153, 192, 227)" fill-opacity="0.49"/><path d="M150,71L143,76L128,39Z" fill="rgb(79, 42, 20)" fill-opacity="0.48"/><path d="M99,45L129,35L89,30Z" fill="rgb(131, 102, 82)" fill-opacity="0.47"/><path d="M180,-12L162,34L148,-18Z" fill="rgb(90, 91, 86)" fill-opacity="0.63"/><path d="M189,175L216,176L204,180Z" fill="rgb(27, 37, 88)" fill-opacity="0.49"/><path d="M74,53L107,55L100,69Z" fill="rgb(74, 110, 149)" fill-opacity="0.49"/><path d="M86,26L78,32L50,24Z" fill="rgb(65, 82, 93)" fill-opacity="0.59"/><path d="M138,170L152,175L139,74Z" fill="rgb(100, 91, 93)" fill-opacity="0.28"/><path d="M167,128L185,139L175,106Z" fill="rgb(80, 62, 50)" fill-opacity="0.63"/><path d="M138,186L145,188L107,208Z" fill="rgb(32, 58, 88)" fill-opacity="0.65"/><path d="M156,130L144,140L157,83Z" fill="rgb(54, 40, 34)" fill-opacity="0.46"/><path d="M82,21L-2,3L61,2Z" fill="rgb(142, 152, 150)" fill-opacity="0.33"/><path d="M-112,140L56,129L60,151Z" fill="rgb(11, 49, 75)" fill-opacity="0.40"/><path d="M171,184L187,196L152,185Z" fill="rgb(129, 172, 225)" fill-opacity="0.59"/><path d="M173,179L176,156L194,181Z" fill="rgb(0, 42, 60)" fill-opacity="0.44"/><path d="M62,128L26,98L-11,99Z" fill="rgb(56, 84, 120)" fill-opacity="0.61"/><path d="M161,69L209,135L164,90Z" fill="rgb(123, 140, 157)" fill-opacity="0.61"/><path d="M128,76L85,44L110,40Z" fill="rgb(127, 154, 180)" fill-opacity="0.52"/><path d="M99,126L106,150L107,135Z" fill="rgb(39, 92, 122)" fill-opacity="0.71"/><path d="M146,124L154,105L136,114Z" fill="rgb(80, 63, 54)" fill-opacity="0.54"/><path d="M122,207L-18,188L48,155Z" fill="rgb(4, 100, 150)" fill-opacity="0.47"/><path d="M181,180L241,189L183,187Z" fill="rgb(154, 185, 237)" fill-opacity="0.36"/><path d="M106,134L144,128L99,113Z" fill="rgb(115, 151, 187)" fill-opacity="0.59"/><path d="M213,-65L163,66L281,26Z" fill="rgb(137, 139, 132)" fill-opacity="0.44"/><path d="M76,215L99,128L103,175Z" fill="rgb(17, 90, 130)" fill-opacity="0.63"/><path d="M124,184L102,193L124,196Z" fill="rgb(95, 103, 110)" fill-opacity="0.50"/><path d="M54,106L93,42L91,108Z" fill="rgb(122, 141, 158)" fill-opacity="0.66"/><path d="M124,37L84,27L131,10Z" fill="rgb(196, 178, 173)" fill-opacity="0.25"/><path d="M2,-5L45,-67L67,5Z" fill="rgb(99, 89, 78)" fill-opacity="0.58"/><path d="M116,222L141,136L142,168Z" fill="rgb(108, 144, 185)" fill-opacity="0.49"/><path d="M99,194L115,180L103,168Z" fill="rgb(152, 187, 222)" fill-opacity="0.43"/><path d="M137,151L162,150L162,130Z" fill="rgb(117, 134, 154)" fill-opacity="0.50"/><path d="M76,43L103,31L80,46Z" fill="rgb(133, 96, 77)" fill-opacity="0.47"/><path d="M185,177L179,152L220,137Z" fill="rgb(17, 82, 116)" fill-opacity="0.56"/><path d="M133,13L139,7L138,42Z" fill="rgb(22, 27, 31)" fill-opacity="0.58"/><path d="M88,104L75,130L100,129Z" fill="rgb(82, 117, 156)" fill-opacity="0.59"/><path d="M81,45L103,33L80,60Z" fill="rgb(223, 204, 196)" fill-opacity="0.28"/><path d="M89,20L73,45L96,18Z" fill="rgb(167, 188, 209)" fill-opacity="0.47"/><path d="M73,53L50,31L82,37Z" fill="rgb(132, 143, 150)" fill-opacity="0.52"/><path d="M83,154L105,129L66,132Z" fill="rgb(17, 66, 88)" fill-opacity="0.48"/><path d="M14,134L19,103L70,106Z" fill="rgb(63, 96, 137)" fill-opacity="0.56"/><path d="M228,174L231,179L241,179Z" fill="rgb(25, 85, 123)" fill-opacity="0.50"/><path d="M101,106L128,118L141,88Z" fill="rgb(145, 176, 209)" fill-opacity="0.53"/><path d="M48,114L58,23L-2,53Z" fill="rgb(113, 127, 135)" fill-opacity="0.49"/><path d="M116,43L143,47L94,31Z" fill="rgb(99, 77, 65)" fill-opacity="0.51"/><path d="M136,-15L139,19L140,0Z" fill="rgb(3, 8, 12)" fill-opacity="0.46"/><path d="M138,65L141,111L122,72Z" fill="rgb(148, 171, 202)" fill-opacity="0.36"/><path d="M168,100L173,121L153,132Z" fill="rgb(99, 89, 80)" fill-opacity="0.52"/><path d="M105,31L112,2L116,24Z" fill="rgb(165, 169, 177)" fill-opacity="0.55"/><path d="M97,31L91,33L91,39Z" fill="rgb(61, 40, 45)" fill-opacity="0.62"/><path d="M230,175L202,190L238,187Z" fill="rgb(130, 159, 207)" fill-opacity="0.43"/><path d="M181,208L146,175L172,222Z" fill="rgb(71, 126, 170)" fill-opacity="0.77"/><path d="M59,73L98,70L74,52Z" fill="rgb(130, 154, 174)" fill-opacity="0.59"/><path d="M88,62L92,47L101,66Z" fill="rgb(75, 94, 117)" fill-opacity="0.48"/><path d="M183,156L173,180L162,157Z" fill="rgb(66, 49, 39)" fill-opacity="0.55"/><path d="M206,134L226,173L215,172Z" fill="rgb(16, 73, 103)" fill-opacity="0.33"/><path d="M138,63L129,-14L126,42Z" fill="rgb(91, 54, 31)" fill-opacity="0.31"/><path d="M136,88L160,72L134,120Z" fill="rgb(110, 119, 132)" fill-opacity="0.39"/><path d="M93,26L131,-18L98,-12Z" fill="rgb(118, 123, 119)" fill-opacity="0.53"/><path d="M169,71L137,75L167,88Z" fill="rgb(112, 118, 122)" fill-opacity="0.63"/><path d="M140,8L133,42L137,37Z" fill="rgb(5, 9, 14)" fill-opacity="0.37"/><path d="M80,3L79,-4L66,3Z" fill="rgb(114, 115, 118)" fill-opacity="0.47"/><path d="M90,105L124,92L95,81Z" fill="rgb(178, 215, 251)" fill-opacity="0.45"/><path d="M108,138L113,144L104,152Z" fill="rgb(164, 203, 241)" fill-opacity="0.50"/><path d="M4,21L54,33L72,20Z" fill="rgb(76, 93, 103)" fill-opacity="0.43"/><path d="M184,31L164,-15L252,-9Z" fill="rgb(118, 119, 114)" fill-opacity="0.40"/><path d="M123,155L115,138L109,173Z" fill="rgb(89, 110, 128)" fill-opacity="0.44"/><path d="M74,108L97,86L51,42Z" fill="rgb(126, 144, 158)" fill-opacity="0.54"/><path d="M102,139L49,129L33,169Z" fill="rgb(13, 71, 102)" fill-opacity="0.38"/><path d="M156,71L138,56L141,-3Z" fill="rgb(132, 139, 140)" fill-opacity="0.50"/><path d="M71,118L89,113L75,127Z" fill="rgb(58, 88, 132)" fill-opacity="0.50"/><path d="M119,129L109,113L123,119Z" fill="rgb(115, 140, 166)" fill-opacity="0.47"/><path d="M226,172L238,177L237,167Z" fill="rgb(122, 149, 191)" fill-opacity="0.49"/><path d="M116,168L119,151L122,165Z" fill="rgb(38, 66, 86)" fill-opacity="0.40"/><path d="M119,24L119,19L133,41Z" fill="rgb(93, 76, 80)" fill-opacity="0.56"/><path d="M126,158L139,163L138,145Z" fill="rgb(131, 161, 195)" fill-opacity="0.53"/><path d="M156,184L141,191L135,217Z" fill="rgb(126, 167, 217)" fill-opacity="0.47"/><path d="M93,66L145,78L94,76Z" fill="rgb(149, 182, 215)" fill-opacity="0.44"/><path d="M70,21L97,22L89,14Z" fill="rgb(178, 198, 218)" fill-opacity="0.27"/></svg>