<svg xmlns="http://www.w3.org/2000/svg" width="512" height="384" clip-path="url(#clip)" viewBox="0 0 256 192"><defs><clipPath id="clip" clipPathUnits="objectBoundingBox"><rect width="256" height="192" x="0" y="0"/></clipPath></defs><rect width="256" height="192" x="0" y="0" fill="#496478"/><path fill="#A1B9D4" fill-opacity=".67" d="M111,167L151,78L59,4Z"/><path fill="#CCD0D8" fill-opacity=".31" d="M142,102L18,108L34,18Z"/><path fill="#B4B4B1" fill-opacity=".46" d="M186,146L141,1L440,-3Z"/><path fill="#CAAE9E" fill-opacity=".5" d="M129,35L114,-26L82,31Z"/><path fill="#8FB1D6" fill-opacity=".59" d="M83,274L119,63L148,152Z"/><path fill="#164259" fill-opacity=".6" d="M207,121L209,183L151,166Z"/><path fill="#01507A" fill-opacity=".86" d="M-139,142L107,126L91,227Z"/><path fill="#571F00" fill-opacity=".46" d="M179,101L145,143L142,77Z"/><path fill="#6AAAF4" fill-opacity=".45" d="M128,193L268,191L232,166Z"/><path fill="#563E2E" fill-opacity=".63" d="M178,106L136,100L184,162Z"/><path fill="#104A69" fill-opacity=".96" d="M183,143L347,139L188,176Z"/><path fill="#766A60" fill-opacity=".49" d="M263,-147L76,67L167,68Z"/><path fill="#1A0E03" fill-opacity=".51" d="M103,12L40,-45L70,9Z"/><path fill="#66737A" fill-opacity=".89" d="M78,52L6,-6L86,11Z"/><path fill="#7C93A7" fill-opacity=".71" d="M257,-18L181,135L253,143Z"/><path fill="#435B6C" fill-opacity=".59" d="M116,147L123,161L110,195Z"/><path fill="#ADD9FF" fill-opacity=".4" d="M86,114L96,71L157,82Z"/><path fill="#2F2011" fill-opacity=".63" d="M141,-4L116,-3L138,33Z"/><path fill="#372116" fill-opacity=".54" d="M148,94L156,126L161,84Z"/><path fill="#3D4D56" fill-opacity=".78" d="M87,27L-81,15L2,3Z"/><path fill="#6C3F24" fill-opacity=".38" d="M187,125L144,169L176,181Z"/><path fill="#472614" fill-opacity=".49" d="M119,43L140,39L129,21Z"/><path fill="#6C767C" fill-opacity=".76" d="M48,24L35,114L-138,-1Z"/><path fill="#84909B" fill-opacity=".51" d="M99,74L103,-2L34,91Z"/><path fill="#7F8284" fill-opacity=".65" d="M132,105L166,78L142,-9Z"/><path fill="#0A060B" fill-opacity=".82" d="M253,146L256,90L340,53Z"/><path fill="#4B6E9C" fill-opacity=".67" d="M87,104L110,131L-6,127Z"/><path fill="#212121" fill-opacity=".49" d="M100,17L82,-8L77,9Z"/><path fill="#C7BACF" fill-opacity=".13" d="M169,219L129,161L165,117Z"/><path fill="#97CDFF" fill-opacity=".32" d="M90,106L111,41L124,49Z"/><path fill="#828B8D" fill-opacity=".77" d="M134,39L151,72L156,41Z"/><path fill="#B2B5B8" fill-opacity=".4" d="M80,12L84,43L99,14Z"/><path fill="#4A3022" fill-opacity=".57" d="M156,79L150,96L170,98Z"/><path fill="#8CB5D8" fill-opacity=".45" d="M108,166L117,121L98,156Z"/><path fill="#91B8E3" fill-opacity=".59" d="M136,168L124,139L119,182Z"/><path fill="#AAD3FD" fill-opacity=".48" d="M93,70L96,117L122,108Z"/><path fill="#4E76A0" fill-opacity=".86" d="M279,154L238,261L233,165Z"/><path fill="#8295A5" fill-opacity=".65" d="M171,101L225,19L226,122Z"/><path fill="#114D6D" fill-opacity=".66" d="M214,144L203,183L180,133Z"/><path fill="#99C0E3" fill-opacity=".49" d="M110,169L109,186L92,189Z"/><path fill="#4F2A14" fill-opacity=".48" d="M150,71L143,76L128,39Z"/><path fill="#836652" fill-opacity=".47" d="M99,45L129,35L89,30Z"/><path fill="#5A5B56" fill-opacity=".63" d="M180,-12L162,34L148,-18Z"/><path fill="#1B2558" fill-opacity=".49" d="M189,175L216,176L204,180Z"/><path fill="#4A6E95" fill-opacity=".49" d="M74,53L107,55L100,69Z"/><path fill="#41525D" fill-opacity=".59" d="M86,26L78,32L50,24Z"/><path fill="#645B5D" fill-opacity=".28" d="M138,170L152,175L139,74Z"/><path fill="#503E32" fill-opacity=".63" d="M167,128L185,139L175,106Z"/><path fill="#203A58" fill-opacity=".65" d="M138,186L145,188L107,208Z"/><path fill="#362822" fill-opacity=".46" d="M156,130L144,140L157,83Z"/><path fill="#8E9896" fill-opacity=".33" d="M82,21L-2,3L61,2Z"/><path fill="#0B314B" fill-opacity=".4" d="M-112,140L56,129L60,151Z"/><path fill="#81ACE1" fill-opacity=".59" d="M171,184L187,196L152,185Z"/><path fill="#002A3C" fill-opacity=".44" d="M173,179L176,156L194,181Z"/><path fill="#385478" fill-opacity=".61" d="M62,128L26,98L-11,99Z"/><path fill="#7B8C9D" fill-opacity=".61" d="M161,69L209,135L164,90Z"/><path fill="#7F9AB4" fill-opacity=".52" d="M128,76L85,44L110,40Z"/><path fill="#275C7A" fill-opacity=".71" d="M99,126L106,150L107,135Z"/><path fill="#503F36" fill-opacity=".54" d="M146,124L154,105L136,114Z"/><path fill="#046496" fill-opacity=".47" d="M122,207L-18,188L48,155Z"/><path fill="#9AB9ED" fill-opacity=".36" d="M181,180L241,189L183,187Z"/><path fill="#7397BB" fill-opacity=".59" d="M106,134L144,128L99,113Z"/><path fill="#898B84" fill-opacity=".44" d="M213,-65L163,66L281,26Z"/><path fill="#115A82" fill-opacity=".63" d="M76,215L99,128L103,175Z"/><path fill="#5F676E" fill-opacity=".5" d="M124,184L102,193L124,196Z"/><path fill="#7A8D9E" fill-opacity=".66" d="M54,106L93,42L91,108Z"/><path fill="#C4B2AD" fill-opacity=".25" d="M124,37L84,27L131,10Z"/><path fill="#63594E" fill-opacity=".58" d="M2,-5L45,-67L67,5Z"/><path fill="#6C90B9" fill-opacity=".49" d="M116,222L141,136L142,168Z"/><path fill="#98BBDE" fill-opacity=".43" d="M99,194L115,180L103,168Z"/><path fill="#75869A" fill-opacity=".5" d="M137,151L162,150L162,130Z"/><path fill="#85604D" fill-opacity=".47" d="M76,43L103,31L80,46Z"/><path fill="#115274" fill-opacity=".56" d="M185,177L179,152L220,137Z"/><path fill="#161B1F" fill-opacity=".58" d="M133,13L139,7L138,42Z"/><path fill="#52759C" fill-opacity=".59" d="M88,104L75,130L100,129Z"/><path fill="#DFCCC4" fill-opacity=".28" d="M81,45L103,33L80,60Z"/><path fill="#A7BCD1" fill-opacity=".47" d="M89,20L73,45L96,18Z"/><path fill="#848F96" fill-opacity=".52" d="M73,53L50,31L82,37Z"/><path fill="#114258" fill-opacity=".48" d="M83,154L105,129L66,132Z"/><path fill="#3F6089" fill-opacity=".56" d="M14,134L19,103L70,106Z"/><path fill="#19557B" fill-opacity=".5" d="M228,174L231,179L241,179Z"/><path fill="#91B0D1" fill-opacity=".53" d="M101,106L128,118L141,88Z"/><path fill="#717F87" fill-opacity=".49" d="M48,114L58,23L-2,53Z"/><path fill="#634D41" fill-opacity=".51" d="M116,43L143,47L94,31Z"/><path fill="#03080C" fill-opacity=".46" d="M136,-15L139,19L140,0Z"/><path fill="#94ABCA" fill-opacity=".36" d="M138,65L141,111L122,72Z"/><path fill="#635950" fill-opacity=".52" d="M168,100L173,121L153,132Z"/><path fill="#A5A9B1" fill-opacity=".55" d="M105,31L112,2L116,24Z"/><path fill="#3D282D" fill-opacity=".62" d="M97,31L91,33L91,39Z"/><path fill="#829FCF" fill-opacity=".43" d="M230,175L202,190L238,187Z"/><path fill="#477EAA" fill-opacity=".77" d="M181,208L146,175L172,222Z"/><path fill="#829AAE" fill-opacity=".59" d="M59,73L98,70L74,52Z"/><path fill="#4B5E75" fill-opacity=".48" d="M88,62L92,47L101,66Z"/><path fill="#423127" fill-opacity=".55" d="M183,156L173,180L162,157Z"/><path fill="#104967" fill-opacity=".33" d="M206,134L226,173L215,172Z"/><path fill="#5B361F" fill-opacity=".31" d="M138,63L129,-14L126,42Z"/><path fill="#6E7784" fill-opacity=".39" d="M136,88L160,72L134,120Z"/><path fill="#767B77" fill-opacity=".53" d="M93,26L131,-18L98,-12Z"/><path fill="#70767A" fill-opacity=".63" d="M169,71L137,75L167,88Z"/><path fill="#05090E" fill-opacity=".37" d="M140,8L133,42L137,37Z"/><path fill="#727376" fill-opacity=".47" d="M80,3L79,-4L66,3Z"/><path fill="#B2D7FB" fill-opacity=".45" d="M90,105L124,92L95,81Z"/><path fill="#A4CBF1" fill-opacity=".5" d="M108,138L113,144L104,152Z"/><path fill="#4C5D67" fill-opacity=".43" d="M4,21L54,33L72,20Z"/><path fill="#767772" fill-opacity=".4" d="M184,31L164,-15L252,-9Z"/><path fill="#596E80" fill-opacity=".44" d="M123,155L115,138L109,173Z"/><path fill="#7E909E" fill-opacity=".54" d="M74,108L97,86L51,42Z"/><path fill="#0D4766" fill-opacity=".38" d="M102,139L49,129L33,169Z"/><path fill="#848B8C" fill-opacity=".5" d="M156,71L138,56L141,-3Z"/><path fill="#3A5884" fill-opacity=".5" d="M71,118L89,113L75,127Z"/><path fill="#738CA6" fill-opacity=".47" d="M119,129L109,113L123,119Z"/><path fill="#7A95BF" fill-opacity=".49" d="M226,172L238,177L237,167Z"/><path fill="#264256" fill-opacity=".4" d="M116,168L119,151L122,165Z"/><path fill="#5D4C50" fill-opacity=".56" d="M119,24L119,19L133,41Z"/><path fill="#83A1C3" fill-opacity=".53" d="M126,158L139,163L138,145Z"/><path fill="#7EA7D9" fill-opacity=".47" d="M156,184L141,191L135,217Z"/><path fill="#95B6D7" fill-opacity=".44" d="M93,66L145,78L94,76Z"/><path fill="#B2C6DA" fill-opacity=".27" d="M70,21L97,22L89,14Z"/></svg>