<svg xmlns="http://www.w3.org/2000/svg" xmlns:xlink="http://www.w3.org/1999/xlink" id="Layer_2" x="0" y="0" version="1.1" viewBox="0 0 603.4 633.3" xml:space="preserve"><style type="text/css">.st0,.st1{fill:none;stroke:#000;stroke-width:20;stroke-linecap:round;stroke-miterlimit:10}.st1{stroke-width:11}</style><path id="Half1" d="M277.8,102.7c0,0-195.7,0-201.7,206.5c0,0-7.7,175.9,201.6,200.2" class="st0 bJgnBuNg_0"/><path id="Half2" d="M275.3,150.2c0,0-150,0-154.6,158.3c0,0-5.9,134.8,154.5,153.4" class="st0 bJgnBuNg_1"/><path id="Circle" d="M169.10000000000002,306.1A108.5,108.5 0,1,1 386.1,306.1A108.5,108.5 0,1,1 169.10000000000002,306.1" class="st0 bJgnBuNg_2"/><path id="Linha3" d="M277.8,197.6L277.5,414.5" class="st0 bJgnBuNg_3"/><path id="Linha2" d="M354.4,229.5L135.6,447.9" class="st0 bJgnBuNg_4"/><path id="Linha1" d="M135.8,164L419.5,448.1" class="st0 bJgnBuNg_5"/><path id="Minicircle" d="M368.09999999999997,196.8A19.1,19.1 0,1,1 406.3,196.8A19.1,19.1 0,1,1 368.09999999999997,196.8" class="st1 bJgnBuNg_6"/><style>@keyframes bJgnBuNg_fade{0%,95.5223880597015%{stroke-opacity:1}}@keyframes bJgnBuNg_draw_0{7.462686567164178%{stroke-dashoffset:637}22.074225449768274%{stroke-dashoffset:0}}@keyframes bJgnBuNg_draw_1{22.074225449768274%{stroke-dashoffset:489}33.29093269245807%{stroke-dashoffset:0}}@keyframes bJgnBuNg_draw_2{33.29093269245807%{stroke-dashoffset:683}48.95762194963012%{stroke-dashoffset:0}}@keyframes bJgnBuNg_draw_3{48.95762194963012%{stroke-dashoffset:218}53.958117203017395%{stroke-dashoffset:0}}@keyframes bJgnBuNg_draw_4{53.958117203017395%{stroke-dashoffset:311}61.09185125716162%{stroke-dashoffset:0}}@keyframes bJgnBuNg_draw_5{61.09185125716162%{stroke-dashoffset:403}70.33588606044177%{stroke-dashoffset:0}}@keyframes bJgnBuNg_draw_6{70.33588606044177%{stroke-dashoffset:122}73.13432835820896%{stroke-dashoffset:0}}.bJgnBuNg_0{stroke-dasharray:636 638;stroke-dashoffset:637;animation:bJgnBuNg_draw_0 6700ms ease 0ms infinite,bJgnBuNg_fade 6700ms linear 0ms infinite}.bJgnBuNg_1{stroke-dasharray:488 490;stroke-dashoffset:489;animation:bJgnBuNg_draw_1 6700ms ease 0ms infinite,bJgnBuNg_fade 6700ms linear 0ms infinite}.bJgnBuNg_2{stroke-dasharray:682 684;stroke-dashoffset:683;animation:bJgnBuNg_draw_2 6700ms ease 0ms infinite,bJgnBuNg_fade 6700ms linear 0ms infinite}.bJgnBuNg_3{stroke-dasharray:217 219;stroke-dashoffset:218;animation:bJgnBuNg_draw_3 6700ms ease 0ms infinite,bJgnBuNg_fade 6700ms linear 0ms infinite}.bJgnBuNg_4{stroke-dasharray:310 312;stroke-dashoffset:311;animation:bJgnBuNg_draw_4 6700ms ease 0ms infinite,bJgnBuNg_fade 6700ms linear 0ms infinite}.bJgnBuNg_5{stroke-dasharray:402 404;stroke-dashoffset:403;animation:bJgnBuNg_draw_5 6700ms ease 0ms infinite,bJgnBuNg_fade 6700ms linear 0ms infinite}.bJgnBuNg_6{stroke-dasharray:121 123;stroke-dashoffset:122;animation:bJgnBuNg_draw_6 6700ms ease 0ms infinite,bJgnBuNg_fade 6700ms linear 0ms infinite}</style></svg>