<svg xmlns="http://www.w3.org/2000/svg" xmlns:xlink="http://www.w3.org/1999/xlink" version="1.1" x="0px" y="0px" viewBox="0 0 128 160" enable-background="new 0 0 128 128" xml:space="preserve"><g><g><path fill="#000000" d="M87,19.1H23.5c-1,0-1.9-0.8-2-1.8c-0.1-1,0.5-1.9,1.5-2.2L86.5,0.6c0.6-0.1,1.2,0,1.7,0.4s0.8,1,0.8,1.6    v14.6C89,18.2,88.1,19.1,87,19.1z M41,15.1H85V5L41,15.1z"/></g><g><path fill="#000000" d="M104.5,127.5H23.5c-1.1,0-2-0.9-2-2V17.1c0-1.1,0.9-2,2-2h81.1c1.1,0,2,0.9,2,2v108.4    C106.5,126.6,105.7,127.5,104.5,127.5z M25.5,123.5h77.1V19.1H25.5V123.5z"/></g><g><path fill="#000000" d="M48,126.5H23.5c-0.6,0-1-0.4-1-1V17.1c0-0.6,0.4-1,1-1H48c0.6,0,1,0.4,1,1v108.4    C49,126.1,48.5,126.5,48,126.5z M24.5,124.5H47V18.1H24.5V124.5z"/></g></g><text x="0" y="143" fill="#000000" font-size="5px" font-weight="bold" font-family="'Helvetica Neue', Helvetica, Arial-Unicode, Arial, Sans-serif">Created by Vectors Market</text><text x="0" y="148" fill="#000000" font-size="5px" font-weight="bold" font-family="'Helvetica Neue', Helvetica, Arial-Unicode, Arial, Sans-serif">from the Noun Project</text></svg>