<svg xmlns="http://www.w3.org/2000/svg" xmlns:xlink="http://www.w3.org/1999/xlink" version="1.1" x="0px" y="0px" viewBox="0 0 49 61.25" enable-background="new 0 0 49 49" xml:space="preserve"><path fill-rule="evenodd" clip-rule="evenodd" d="M12.086,10.439v2.354h13.893v-2.354H12.086z M12.086,17.503v2.354h13.893v-2.354  H12.086z M12.086,24.567v2.354h13.893v-2.354H12.086z M33.043,39.639v-2.592h3.062v2.592H33.043z M30.924,37.047v2.592h-3.298  v-2.592H30.924z M25.508,37.047v2.592h-3.297v-2.592H25.508z M19.855,37.047v4.946h18.603V24.804h-5.415V13.971h7.771v31.318H17.502  v-8.242H19.855z M33.043,27.157h3.062v2.826h-3.062V27.157z M33.043,32.104h3.062v2.824h-3.062V32.104z M15.146,37.047v10.597  h28.021V11.616H33.043V1.021H5.021v36.026H15.146z M7.375,3.375h23.312v31.317H7.375V3.375z"/><text x="0" y="64" fill="#000000" font-size="5px" font-weight="bold" font-family="'Helvetica Neue', Helvetica, Arial-Unicode, Arial, Sans-serif">Created by Hakan Yalcin</text><text x="0" y="69" fill="#000000" font-size="5px" font-weight="bold" font-family="'Helvetica Neue', Helvetica, Arial-Unicode, Arial, Sans-serif">from the Noun Project</text></svg>